<svg width="939" height="807" fill="none" xmlns="http://www.w3.org/2000/svg">
  <g clip-path="url(#clip0)">
    <path d="M75.365 222.889c41.623 0 75.366-33.742 75.366-75.365s-33.743-75.366-75.366-75.366S0 105.901 0 147.524s33.742 75.365 75.365 75.365z" fill="#CB11AB"/>
    <path d="M874.366 632.387a136.627 136.627 0 01-6.383 37.774c-.089.284-.182.564-.275.847h-23.822c.025-.254.051-.537.076-.847 1.589-18.26 10.746-129.397-.203-148.403.957 1.542 32.454 52.608 30.607 110.629z" fill="#6725A8"/>
    <path d="M872.579 670.161c-.199.284-.407.568-.619.847h-17.87c.135-.241.292-.525.474-.847 2.953-5.328 11.691-21.259 19.802-37.774 8.717-17.748 16.715-36.169 16.041-42.836.208 1.504 6.239 47.343-17.828 80.61z" fill="#6725A8"/>
    <path d="M938.759 669.385h-685v2.24h685v-2.24z" fill="#D1CFD7"/>
    <path d="M692.224 739.355l3.327-27.453 94.005-24.125-10.815-32.444c7.533-21.607 20.759-32.2 44.922-21.629l41.564 25.82a26.54 26.54 0 0112.494 23.971 26.508 26.508 0 01-15.095 22.534c-46.531 22.057-105.835 30.496-170.402 33.326z" fill="#FABDBD"/>
    <path d="M698.046 747.674l-29.116-4.159-27.233 5.557a11.763 11.763 0 01-14.105-11.035 11.765 11.765 0 014.674-9.884L674.941 696a19.267 19.267 0 0124.957 1.51l10.627 10.233c-7.604 4.717-13.259 11.796-16.638 21.629 7.308 4.018 8.695 10.118 4.159 18.302z" fill="#3F3D56"/>
    <path d="M725.855 459.453c14.872 0 26.927-12.056 26.927-26.927 0-14.872-12.055-26.928-26.927-26.928-14.871 0-26.927 12.056-26.927 26.928 0 14.871 12.056 26.927 26.927 26.927z" fill="#FABDBD"/>
    <path d="M767.926 485.626l-60.313 25.373c4.902-24.611 7.345-47.031 0-60.728l38.684-4.576c-1.921 10.526 7.866 24.623 21.629 39.931zM665.603 738.523l-22.462-1.664c-13.76-57.379-20.805-111.615-17.73-161.112a27.996 27.996 0 0128.552-26.31 27.96 27.96 0 0118.639 7.698l29.046 27.641a119.532 119.532 0 0129.431 43.819c8.226 21.545 5.273 33.624-14.366 31.572a48.46 48.46 0 01-31.554-16.776l-21.22-24.661 1.664 119.793z" fill="#FABDBD"/>
    <path d="M648.208 806.708a19.222 19.222 0 01-17.804-16.685c-.382-2.926-.086-5.9.866-8.692l4.384-12.86 3.328-32.443c5.125-10.46 12.385-8.895 20.797-.832 5.348-.525 6.496-5.873 5.823-13.311l16.865 22.703a13.531 13.531 0 011.45 13.684l-16.973 37.231a19.214 19.214 0 01-18.736 11.205zM860.683 656.581c-30.78 17.47-40.428 17.977-71.128 30.365l-26.62-14.975c-31.264 11.561-53.195-4.287-76.951-27.868 15.546-25.893 8.67-59.54 18.302-59.065l115.218 36.188 4.991 12.478 36.188 22.877z" fill="#3F3D56"/>
    <path d="M823.662 629.545c-40.682 17.609-84.485-1.035-121.872-42.011l-24.756-99.98a8.334 8.334 0 013.314-9.002 8.322 8.322 0 013.114-1.322l28.726-5.746 14.143 22.461 28.284-24.956 30.038 9.82a23.19 23.19 0 0115.633 18.02l23.376 132.716z" fill="#CB11AB"/>
    <path opacity=".2" d="M759.044 714.303a14.69 14.69 0 01-9.088-17.017 14.693 14.693 0 013.112-6.212l19.017-22.43 13.311 7.487-6.854 27.943a14.685 14.685 0 01-7.443 9.509 14.682 14.682 0 01-12.055.72z" fill="#000"/>
    <path d="M759.044 710.975a14.697 14.697 0 01-9.088-17.016 14.697 14.697 0 013.112-6.213l19.017-22.43 13.31 7.487-6.854 27.943a14.678 14.678 0 01-13.392 11.165 14.691 14.691 0 01-6.105-.936z" fill="#FABDBD"/>
    <path d="M788.723 679.458l-19.965-13.31 29.116-77.366-10.814-108.979 9.865 6.166a46.092 46.092 0 0120.726 29.828l15.995 77.976c-6.999 35.942-18.665 67.565-44.923 85.685z" fill="#CB11AB"/>
    <path opacity=".2" d="M776.661 555.922l9.983 49.914-8.211 29.192-1.772-79.106z" fill="#000"/>
    <path d="M699.522 430.217s-15.517-50.784 31.907-40.133c7.356 1.652 13.711 5.928 18.766 11.521a4.572 4.572 0 003.572 1.459c7.576 0 12.256 27.072-2.896 38.977 0 0 3.092-16.02-2.528-21.479a12.052 12.052 0 01-2.501-3.22c-3.658-7.378-15.952-9.8-24.432-9.172-4.329.321-4.708 7.869-9.5 6.814-10.904-2.398-14.385 10.233-12.388 15.233z" fill="#3F3D56"/>
    <path d="M747.254 505.59l-.313 2.3-1.938 14.187-3.174 23.235-.794 5.817a1.856 1.856 0 01-1.837 1.603h-21.163a1.852 1.852 0 01-1.836-1.599l-.809-5.821-3.227-23.235-1.972-14.198-.317-2.284a1.863 1.863 0 011.068-1.942c.241-.11.502-.167.767-.167h33.709c.264 0 .526.057.767.166a1.847 1.847 0 011.069 1.938z" fill="#D1CFD7"/>
    <path d="M713.942 497.33h29.352a1.857 1.857 0 011.712 1.145c.093.224.141.465.141.709v2.449a1.85 1.85 0 01-1.853 1.853h-29.352a1.85 1.85 0 01-1.853-1.854v-2.448a1.85 1.85 0 01.543-1.311 1.866 1.866 0 011.31-.543z" fill="#3F3D56"/>
    <path d="M749.906 506.564a196.243 196.243 0 01-42.575 0 1.857 1.857 0 01-1.712-1.144 1.838 1.838 0 01-.141-.709v-2.449a1.85 1.85 0 01.542-1.311 1.87 1.87 0 011.311-.543 174.376 174.376 0 0042.575 0 1.855 1.855 0 011.853 1.854v2.449a1.85 1.85 0 01-1.853 1.853z" fill="#3F3D56"/>
    <path d="M727.759 535.008a8 8 0 100-16 8 8 0 000 16z" fill="#fff"/>
    <path d="M748.326 543.839a14.691 14.691 0 01-18.041 15.804l-28.595-6.865.684-15.256 28.033-6.477a14.692 14.692 0 0117.919 12.794z" fill="#FFB8B8"/>
    <path d="M709.693 555.506l-77.169 1.929a19.163 19.163 0 01-18.832-13.634 19.163 19.163 0 015.259-19.524l36.333-33.99a48.523 48.523 0 0124.205-12.256l12.734-2.387 7.487 56.569-43.259-4.992 50.746 5.824 2.496 22.461z" fill="#CB11AB"/>
    <path d="M608.03 721.501H411.023a6.606 6.606 0 01-6.606-6.606c71.415-8.3 141.488-8.3 210.219 0a6.606 6.606 0 01-6.606 6.606z" fill="#2F2E41"/>
    <path d="M614.636 715.284l-210.219-.389 24.364-40.995.116-.194v-90.347a8.344 8.344 0 012.446-5.905 8.344 8.344 0 015.905-2.446h143.391a8.344 8.344 0 015.905 2.446 8.344 8.344 0 012.446 5.905v90.969l25.646 40.956z" fill="#3F3D56"/>
    <path d="M437.058 580.837a2.726 2.726 0 00-2.72 2.72v82.378a2.727 2.727 0 002.72 2.72h144.938a2.726 2.726 0 002.72-2.72v-82.378a2.725 2.725 0 00-2.72-2.72H437.058z" fill="#fff"/>
    <path d="M438.01 679.535a1.167 1.167 0 00-1.059.678l-7.507 16.321a1.17 1.17 0 00.499 1.51c.172.093.364.143.56.143h157.872a1.159 1.159 0 00.991-.553 1.161 1.161 0 00.051-1.135l-8.16-16.32a1.16 1.16 0 00-1.042-.644H438.01z" fill="#2F2E41"/>
    <path d="M508.944 579.477a1.749 1.749 0 100-3.497 1.749 1.749 0 000 3.497z" fill="#fff"/>
    <path d="M493.426 701.295a1.163 1.163 0 00-1.126.863l-1.883 6.994a1.168 1.168 0 001.126 1.469h35.812a1.163 1.163 0 001.101-1.547l-2.421-6.995a1.167 1.167 0 00-1.101-.784h-31.508zM588.99 672.346v1.555H428.781l.12-.195v-1.36H588.99z" fill="#2F2E41"/>
    <path d="M360.902 620.507a175.146 175.146 0 008.181 48.416c.114.363.234.722.353 1.085h30.533a61.795 61.795 0 01-.098-1.085c-2.036-23.405-13.773-165.851.261-190.211-1.227 1.976-41.597 67.428-39.23 141.795z" fill="#6725A8"/>
    <path d="M363.192 668.923c.255.363.521.727.793 1.085h22.905c-.174-.309-.375-.673-.608-1.085-3.784-6.83-14.984-27.249-25.381-48.416-11.173-22.748-21.423-46.358-20.559-54.904-.267 1.928-7.997 60.68 22.85 103.32z" fill="#6725A8"/>
    <path d="M414.852 175.159l12.414-9.928c-9.644-1.064-13.606 4.195-15.228 8.358-7.534-3.129-15.735.971-15.735.971l24.837 9.017a18.79 18.79 0 00-6.288-8.418zM788.737 124.054l12.413-9.929c-9.643-1.064-13.606 4.196-15.227 8.359-7.534-3.129-15.735.971-15.735.971l24.837 9.017a18.797 18.797 0 00-6.288-8.418zM717.255 255.809l12.414-9.929c-9.644-1.064-13.606 4.196-15.228 8.358-7.533-3.128-15.735.972-15.735.972l24.837 9.017a18.79 18.79 0 00-6.288-8.418z" fill="#3F3D56"/>
    <path d="M229.971 451.019c60.919-10.984 92.136-120.652 69.725-244.952C277.286 81.768 209.733-10.093 148.814.891 87.895 11.874 56.678 121.543 79.089 245.842c22.411 124.3 89.963 216.16 150.882 205.177z" fill="#6725A8"/>
    <path d="M171.036 183.149a1068.427 1068.427 0 0126.319 81.519 1069.755 1069.755 0 0119.689 83.368 1069.713 1069.713 0 0112.971 84.738 1073.272 1073.272 0 016.126 85.444c.9 28.547.651 57.099-.746 85.657-.172 3.499-.362 6.997-.569 10.494-.21 3.582 5.362 3.569 5.572 0a1068.42 1068.42 0 001.585-86.051 1070.168 1070.168 0 00-5.319-85.497 1086.627 1086.627 0 00-12.146-85.146 1073.231 1073.231 0 00-18.913-83.962 1064.278 1064.278 0 00-29.196-92.045c-1.228-3.337-6.615-1.895-5.373 1.481z" fill="#3F3D56"/>
    <path d="M209.428 288.604l24.684-54.809 6.958-15.448a2.87 2.87 0 00-1-3.812 2.807 2.807 0 00-3.811 1l-24.685 54.809-6.957 15.448a2.872 2.872 0 00.999 3.812 2.81 2.81 0 003.812-1zM214.881 326.055l-56.285-21.104-15.864-5.948a2.81 2.81 0 00-3.427 1.946 2.848 2.848 0 001.946 3.427l56.285 21.103 15.864 5.948a2.81 2.81 0 003.427-1.946 2.845 2.845 0 00-1.946-3.426z" fill="#3F3D56"/>
    <path d="M171.052 625s67.788-22.287 130.934 0z" fill="#6725A8"/>
    <path d="M474.377 614.441c13.433-.14 26.864-.38 40.297-.563 4.478-.061 8.956-.114 13.434-.16 3.858-.04 3.868-6.04 0-6-13.433.14-26.864.38-40.297.563-4.478.061-8.956.114-13.434.16-3.858.04-3.868 6.04 0 6zM474.377 628.441l54.29-.563 15.441-.16c3.858-.04 3.868-6.04 0-6l-54.291.563-15.44.16c-3.858.04-3.868 6.04 0 6zM474.377 642.441l54.29-.563 15.441-.16c3.858-.04 3.868-6.04 0-6l-54.291.563-15.44.16c-3.858.04-3.868 6.04 0 6z" fill="#CB11AB"/>
  </g>
  <defs>
    <clipPath id="clip0">
      <path fill="#fff" d="M0 0h938.759v806.748H0z"/>
    </clipPath>
  </defs>
</svg>